<?xml version="1.0" encoding="utf-8"?>
<!-- Generator: Adobe Illustrator 25.2.0, SVG Export Plug-In . SVG Version: 6.00 Build 0)  -->
<svg version="1.1" id="Layer_1" xmlns="http://www.w3.org/2000/svg" xmlns:xlink="http://www.w3.org/1999/xlink" x="0px" y="0px"
	 width="128px" height="128px" viewBox="0 0 128 128" style="enable-background:new 0 0 128 128;" xml:space="preserve">
<style type="text/css">
	.st0{fill:#EEF4F4;}
	.st1{fill:#ECDDE0;}
	.st2{fill:#825F76;}
	.st3{fill:#DC8898;}
	.st4{fill:#8D714C;}
	.st5{fill:#C57180;}
	.st6{fill:#FBECB3;}
</style>
<circle class="st0" cx="64" cy="64" r="63.5"/>
<g>
	<path class="st1" d="M36.9,44.9c1.1-6.6,3.4-15.3,6-19.6c1.5-2.4,3.7-4.4,6.3-6.2c6.1-4.2,14.6-4.9,20.2-1.4
		c6,3.7,6.4,8.3,8.9,12.3c24.3-4.1,34.1,15.4,35.4,17.4c-2.6,1.7-4.9,3.3-6,3.7C87,58.3,34.2,61.1,36.9,44.9z"/>
	<path class="st2" d="M44.1,48.7c0,0-7.1-18.2,6-28c25.1-8.9,22.2,20.8,22.2,20.8s17.3-11.8,28.9-1.9s6,20.1,6,20.1
		s-2.7,6.4-8.2,8.2c3.3,1.6,15.6,14.7,7.1,28c-17.6,21.6-34.2-0.9-34.2-0.9s-13.4,24.3-29.7,16.2c-19.8-9.8-6.7-29.3-6.7-29.3
		s-18.2-2-19.6-15.1C12,31,44.1,48.7,44.1,48.7z"/>
	<path class="st3" d="M98.1,66.5c5.6-1.8,8.2-8.2,8.2-8.2s5.6-10.2-6-20.1c-11.6-9.9-27.5,1.3-27.5,1.3s1-30.6-23.5-20.2
		c-10.6,4.5-6,28-6,28S10.8,30.5,14.6,66.4c1.4,13.1,20,14.1,20,14.1s-13.1,19.5,6.7,29.3C57.7,117.9,71,93.6,71,93.6
		s16.7,22.4,34.2,0.9C113.7,81.2,101.5,68.1,98.1,66.5z"/>
	<circle class="st4" cx="59.9" cy="66.8" r="13.4"/>
	<path class="st5" d="M44.6,62.2c-1.6-1.4-3.7-2-5.7-2.7c-2.2-0.7-4.5-1.4-6.8-1.7c-3.8-0.4-8.1,0.5-10.7,3.5
		c-0.7,0.8,0.5,2.1,1.2,1.2c2.3-2.7,6.1-3.4,9.5-3c2,0.2,4,0.8,6,1.5c1.8,0.6,3.8,1.1,5.3,2.4C44.2,64.1,45.4,62.9,44.6,62.2z"/>
	<path class="st5" d="M58.8,38.2c-0.3-2-0.8-4-1.5-5.9c-0.7-1.9-1.7-3.7-2.2-5.7c-0.2-1.1-1.9-0.6-1.7,0.5c0.4,1.9,1.4,3.6,2.1,5.5
		c0.7,1.9,1.2,3.9,1.5,5.9c0.7,4,0.7,8.1,0.7,12.1c0,1.1,1.7,1.1,1.7,0C59.5,46.4,59.4,42.3,58.8,38.2z"/>
	<path class="st5" d="M93.1,44.9c-4.9,0.4-9.7,1.9-14.1,4.3c-3.8,2.1-7.4,5.1-8.8,9.3c-0.3,1.1,1.3,1.5,1.7,0.5
		c1.3-3.9,4.7-6.5,8.2-8.4c4-2.2,8.4-3.6,13-4C94.2,46.6,94.2,44.8,93.1,44.9z"/>
	<g>
		<path class="st2" d="M51.6,63.7c-2.7-3.5-4.6-7-5.4-12.5c-0.1-0.1-0.1,0-0.1,0.1c0,5.3,2.4,9.2,5.2,12.8c0.1,0.2,0.2,0.3,0.4,0.4
			l0.4-0.3C52,64,51.8,63.8,51.6,63.7z"/>
	</g>
	<path class="st5" d="M97.4,88.5c-6.9-6.6-15.2-11.7-24.2-15c-1-0.4-1.5,1.3-0.5,1.7c8.7,3.2,16.7,8.2,23.4,14.6
		C97,90.5,98.2,89.3,97.4,88.5z"/>
	<path class="st6" d="M70.5,58.3c-2.4-3.6-6.5-6-11.1-6c-7.4,0-13.4,6-13.4,13.4c0,7.4,6,13.4,13.4,13.4s13.4-6,13.4-13.4
		c0-2.4-0.6-4.7-1.8-6.6C70.8,58.6,70.7,58.6,70.5,58.3z"/>
	<path class="st5" d="M53.5,80.9c-1.7,3.4-3.7,6.8-6,9.9c-2,2.7-4.4,5.3-7.6,6.5c-1,0.4-0.6,2.1,0.5,1.7c3.4-1.3,6-3.9,8.2-6.7
		C51,89,53.1,85.4,55,81.8C55.5,80.8,54,79.9,53.5,80.9z"/>
	<g>
		<path class="st2" d="M70.7,93.3c-2.7-3.5-4.6-7-5.4-12.5c-0.1-0.1-0.1,0-0.1,0.1c0,5.3,2.4,9.2,5.2,12.8c0.1,0.2,0.2,0.3,0.4,0.4
			l0.3-0.3C71.1,93.6,70.9,93.5,70.7,93.3z"/>
	</g>
</g>
</svg>
