<?xml version="1.0" standalone="no"?>
<!DOCTYPE svg PUBLIC "-//W3C//DTD SVG 20010904//EN"
 "http://www.w3.org/TR/2001/REC-SVG-20010904/DTD/svg10.dtd">
<svg version="1.0" xmlns="http://www.w3.org/2000/svg"
 width="128.000000pt" height="128.000000pt" viewBox="0 0 128.000000 128.000000"
 preserveAspectRatio="xMidYMid meet">

<g transform="translate(0.000000,128.000000) scale(0.100000,-0.100000)"
fill="#000000" stroke="none">
<path d="M333 1250 c-9 -10 -21 -16 -27 -13 -6 4 -5 -1 3 -10 12 -15 10 -18
-20 -29 -19 -7 -37 -11 -41 -10 -5 1 -8 -3 -8 -8 0 -6 6 -10 13 -8 19 3 90
-13 83 -19 -3 -3 -31 -7 -62 -9 -32 -2 -62 -8 -68 -14 -8 -8 0 -9 25 -5 28 4
36 2 36 -10 0 -8 -4 -15 -9 -15 -4 0 -8 -4 -8 -10 0 -26 110 -3 146 30 12 12
28 22 35 24 8 1 20 5 27 9 21 14 13 -4 -10 -24 -13 -10 -18 -18 -11 -19 6 0
15 5 19 11 4 8 9 7 15 -2 11 -19 31 37 24 65 -4 12 -3 16 2 9 6 -8 16 0 31 24
13 19 19 32 13 29 -5 -4 -12 -2 -16 4 -3 5 -35 10 -70 10 -57 0 -64 -2 -71
-22 -5 -13 -7 -26 -6 -30 1 -5 -3 -8 -9 -8 -6 0 -8 7 -5 15 3 8 9 21 12 29 9
22 -25 27 -43 6z m44 -86 c-3 -3 -12 -4 -19 -1 -8 3 -5 6 6 6 11 1 17 -2 13
-5z"/>
<path d="M560 1238 c0 -12 1 -19 3 -17 1 2 9 12 16 22 12 14 11 17 -3 17 -10
0 -16 -8 -16 -22z"/>
<path d="M650 1246 c0 -2 7 -9 15 -16 13 -11 14 -10 9 4 -5 14 -24 23 -24 12z"/>
<path d="M636 1222 c-3 -6 -1 -14 5 -17 15 -10 25 3 12 16 -7 7 -13 7 -17 1z"/>
<path d="M563 1196 c-4 -5 0 -6 7 -1 10 6 11 2 6 -19 -7 -29 5 -34 24 -11 9
11 15 13 20 5 5 -8 9 -7 13 4 4 10 1 16 -9 16 -8 0 -13 3 -11 8 3 4 -6 7 -20
7 -14 0 -27 -4 -30 -9z"/>
<path d="M730 1201 c0 -6 5 -13 10 -16 6 -3 10 1 10 9 0 9 -4 16 -10 16 -5 0
-10 -4 -10 -9z"/>
<path d="M533 1173 c-18 -7 -16 -20 2 -20 8 0 15 6 15 14 0 7 -1 13 -2 12 -2
0 -9 -3 -15 -6z"/>
<path d="M767 1161 c-3 -14 0 -24 9 -28 21 -8 24 -1 10 26 l-13 23 -6 -21z"/>
<path d="M635 1130 c3 -5 8 -10 11 -10 2 0 4 5 4 10 0 6 -5 10 -11 10 -5 0 -7
-4 -4 -10z"/>
<path d="M640 1106 c0 -2 8 -10 18 -17 15 -13 16 -12 3 4 -13 16 -21 21 -21
13z"/>
<path d="M395 1093 c-78 -17 -113 -35 -120 -60 -3 -14 -13 -32 -20 -40 -17
-17 -19 -33 -5 -33 6 0 10 -6 9 -12 -1 -7 -1 -26 0 -42 1 -28 2 -29 15 -10 8
10 18 16 22 12 4 -4 1 -15 -7 -25 -9 -11 -4 -10 15 5 16 12 32 20 35 17 3 -4
0 -10 -7 -14 -13 -8 -56 -81 -47 -81 2 0 0 -11 -5 -25 -5 -13 -12 -61 -15
-107 -4 -46 -9 -91 -11 -100 -6 -20 11 -25 19 -5 2 6 15 53 27 102 12 50 25
95 28 100 4 6 5 18 3 28 -1 10 5 24 15 31 9 7 19 23 21 35 1 12 12 34 22 49
11 15 21 41 23 57 2 17 7 33 13 37 6 5 5 8 -2 8 -10 0 -10 6 0 27 9 21 9 27
-1 31 -7 2 -10 8 -6 13 3 5 4 8 2 8 -2 -1 -12 -3 -23 -6z"/>
<path d="M246 1058 c3 -4 9 -8 15 -8 5 0 9 4 9 8 0 5 -7 9 -15 9 -8 0 -12 -4
-9 -9z"/>
<path d="M193 1032 c-13 -9 -34 -82 -23 -82 4 0 10 8 13 18 4 9 13 27 22 39
16 21 8 38 -12 25z"/>
<path d="M234 1022 c-6 -4 -17 -18 -24 -32 -12 -24 -11 -24 19 4 17 17 31 31
31 33 0 5 -15 3 -26 -5z"/>
<path d="M1130 980 c-13 -9 -13 -11 0 -20 23 -15 29 -12 23 10 -3 11 -6 20 -7
20 0 0 -8 -5 -16 -10z"/>
<path d="M140 949 c0 -5 -5 -7 -12 -3 -8 5 -9 2 -5 -10 4 -10 7 -24 7 -32 0
-9 4 -13 9 -9 9 5 13 65 4 65 -1 0 -3 -5 -3 -11z"/>
<path d="M80 866 c-17 -17 -11 -55 9 -66 23 -12 60 -1 80 24 18 22 8 30 -19
16 -11 -6 -29 -9 -38 -7 -13 3 -11 6 10 15 14 6 29 16 33 22 8 14 -61 10 -75
-4z"/>
<path d="M500 850 c0 -5 -16 -20 -35 -32 -19 -13 -35 -27 -35 -31 0 -4 28 -5
63 -1 49 5 71 3 93 -9 l29 -16 -45 -1 c-48 0 -110 -30 -110 -53 0 -7 -12 -20
-27 -30 l-28 -18 34 5 c18 3 41 6 50 6 13 1 13 3 -4 16 -19 14 -16 15 31 10
65 -6 105 -16 122 -29 19 -15 -4 -37 -39 -37 -15 0 -31 -5 -34 -10 -4 -6 -11
-7 -17 -4 -6 4 -8 2 -4 -4 7 -12 74 -6 91 8 21 18 64 30 70 19 4 -5 3 -9 -2
-8 -19 4 -72 -27 -82 -47 -9 -21 -9 -21 35 -8 24 7 46 9 49 4 3 -5 19 -19 35
-30 21 -15 28 -17 24 -7 -3 10 2 18 15 22 18 5 19 8 7 21 -8 8 -20 14 -26 14
-6 0 -8 5 -3 13 11 18 12 36 3 42 -4 3 -6 13 -3 24 3 12 -2 21 -14 25 -30 10
-99 56 -88 57 6 1 15 3 20 4 6 2 15 3 21 4 7 0 14 8 18 16 4 11 -12 20 -67 37
-40 13 -82 22 -94 20 -12 -1 -24 2 -28 8 -8 13 -25 13 -25 0z m120 -130 c0 -5
-4 -10 -10 -10 -5 0 -10 5 -10 10 0 6 5 10 10 10 6 0 10 -4 10 -10z"/>
<path d="M146 791 c-11 -12 -17 -23 -14 -26 8 -9 41 21 37 34 -3 9 -11 6 -23
-8z"/>
<path d="M897 798 c-9 -5 -17 -15 -17 -23 0 -7 -9 -17 -20 -20 -11 -4 -18 -11
-15 -16 3 -5 1 -19 -6 -31 -8 -15 -9 -23 -1 -26 6 -2 9 -9 6 -17 -9 -21 37
-45 86 -45 38 1 43 2 28 13 -15 12 -13 14 12 25 20 9 28 19 25 33 -4 21 5 18
37 -8 10 -9 18 -11 22 -4 11 18 -13 50 -42 57 -47 10 -48 11 -18 19 18 5 42 3
60 -3 32 -13 50 -7 26 8 -11 7 -11 10 -2 10 9 0 10 5 2 19 -9 17 -21 20 -88
19 -43 0 -86 -4 -95 -10z"/>
<path d="M1126 803 c-6 -7 0 -105 11 -153 5 -25 5 -25 13 -3 7 18 -4 150 -14
160 -1 2 -6 0 -10 -4z"/>
<path d="M360 741 c0 -6 5 -13 10 -16 6 -3 10 1 10 9 0 9 -4 16 -10 16 -5 0
-10 -4 -10 -9z"/>
<path d="M117 649 c7 -7 15 -10 18 -7 3 3 -2 9 -12 12 -14 6 -15 5 -6 -5z"/>
<path d="M457 653 c-3 -5 20 -9 52 -10 39 -1 50 1 36 7 -25 11 -82 13 -88 3z"/>
<path d="M110 625 c0 -3 10 -25 23 -48 l22 -42 3 39 c2 24 -2 42 -10 47 -15
10 -38 12 -38 4z"/>
<path d="M910 600 c0 -5 5 -10 10 -10 6 0 10 5 10 10 0 6 -4 10 -10 10 -5 0
-10 -4 -10 -10z"/>
<path d="M188 569 c-10 -6 -18 -18 -18 -28 0 -20 56 -65 70 -56 10 6 -8 55
-21 55 -4 0 -9 9 -11 19 -2 16 -7 18 -20 10z"/>
<path d="M666 556 c-25 -12 -86 -79 -86 -96 0 -3 9 -6 20 -6 11 0 20 4 20 8 0
4 7 5 15 1 13 -5 13 -8 -4 -20 -20 -13 -20 -15 -5 -39 15 -23 18 -23 39 -10
22 15 65 11 65 -5 0 -5 7 -5 17 -2 10 4 14 2 9 -5 -3 -6 -2 -13 3 -16 11 -7
23 22 15 35 -3 5 -1 9 4 9 14 0 23 -28 11 -36 -5 -3 -7 -15 -4 -27 5 -17 4
-19 -4 -7 -8 11 -11 11 -11 2 0 -9 -5 -10 -17 -4 -10 5 -52 10 -94 11 -65 1
-77 -1 -83 -16 -3 -10 -8 -23 -11 -28 -3 -6 7 -12 22 -13 15 -1 30 -7 33 -13
4 -6 22 -13 41 -16 39 -6 59 -19 59 -39 0 -16 26 -19 35 -4 4 6 11 8 16 4 11
-6 38 23 39 41 0 6 -4 4 -9 -4 -5 -7 -14 -12 -22 -9 -16 5 58 42 91 44 30 2
80 -15 80 -28 0 -5 5 -6 10 -3 6 3 10 16 9 28 0 12 -3 17 -6 10 -3 -9 -10 -7
-25 6 -12 12 -43 22 -81 26 -51 6 -58 9 -44 20 12 9 13 15 5 23 -6 6 -12 21
-13 33 -1 12 -8 24 -16 25 -62 14 -119 41 -119 57 0 19 20 23 37 6 20 -20 35
24 17 49 -17 25 -18 25 -58 8z m-26 -136 c0 -5 -2 -10 -4 -10 -3 0 -8 5 -11
10 -3 6 -1 10 4 10 6 0 11 -4 11 -10z m105 -180 c3 -5 1 -10 -4 -10 -6 0 -11
5 -11 10 0 6 2 10 4 10 3 0 8 -4 11 -10z"/>
<path d="M880 536 c0 -21 28 -84 41 -92 6 -3 20 -25 30 -48 10 -22 19 -33 19
-23 0 10 -11 40 -25 67 -14 27 -25 57 -25 67 0 10 -9 24 -20 31 -16 10 -20 10
-20 -2z"/>
<path d="M155 497 c15 -21 30 -35 33 -32 3 3 -9 20 -27 38 l-34 32 28 -38z"/>
<path d="M855 450 c-3 -5 -1 -10 4 -10 6 0 11 5 11 10 0 6 -2 10 -4 10 -3 0
-8 -4 -11 -10z"/>
<path d="M719 179 c-11 -11 -18 -23 -15 -26 8 -8 27 8 21 18 -6 9 15 13 44 10
7 -2 10 2 6 8 -10 17 -33 13 -56 -10z"/>
<path d="M370 171 c0 -5 21 -28 46 -50 39 -34 54 -41 89 -41 24 0 74 -12 111
-26 83 -31 172 -35 191 -7 16 22 -2 36 -29 22 -13 -7 -21 -5 -30 11 -17 26
-32 26 -25 -1 4 -16 3 -18 -9 -8 -11 9 -14 8 -14 -2 0 -10 -2 -11 -8 -2 -4 7
-16 10 -27 9 -24 -4 -71 18 -103 47 l-23 22 5 -30 c4 -25 3 -27 -7 -15 -7 8
-21 17 -32 18 -29 5 -103 40 -110 52 -8 13 -25 13 -25 1z"/>
</g>
</svg>
