<?xml version="1.0" standalone="no"?>
<!DOCTYPE svg PUBLIC "-//W3C//DTD SVG 20010904//EN"
 "http://www.w3.org/TR/2001/REC-SVG-20010904/DTD/svg10.dtd">
<svg version="1.0" xmlns="http://www.w3.org/2000/svg"
 width="64.000000pt" height="64.000000pt" viewBox="0 0 64.000000 64.000000"
 preserveAspectRatio="xMidYMid meet">

<g transform="translate(0.000000,64.000000) scale(0.100000,-0.100000)"
fill="#000000" stroke="none">
<path d="M267 568 c-22 -48 -23 -56 -10 -80 24 -48 83 -51 116 -6 20 27 20 28
2 70 -26 59 -34 68 -61 68 -18 0 -28 -11 -47 -52z"/>
<path d="M211 454 c-15 -33 -13 -35 22 -20 28 11 28 12 10 29 -19 16 -20 16
-32 -9z"/>
<path d="M391 461 c-8 -15 -5 -20 16 -30 32 -15 37 -10 22 23 -14 31 -25 33
-38 7z"/>
<path d="M235 406 c-28 -13 -21 -14 83 -17 61 -2 112 -3 112 -2 0 1 -13 9 -30
18 -36 18 -124 19 -165 1z"/>
<path d="M156 345 c-4 -13 7 -15 74 -15 l80 0 0 -155 c0 -97 4 -155 10 -155 6
0 10 58 10 155 l0 155 76 0 c56 0 75 3 72 13 -4 9 -47 13 -160 15 -132 2 -157
0 -162 -13z"/>
<path d="M126 284 c-13 -33 -6 -120 13 -154 22 -41 75 -85 114 -94 l27 -6 0
135 0 135 -74 0 c-58 0 -75 -3 -80 -16z"/>
<path d="M360 165 c0 -77 4 -135 9 -135 44 0 103 46 132 102 22 42 26 137 7
156 -7 7 -40 12 -80 12 l-68 0 0 -135z"/>
<path d="M536 185 c-8 -32 -7 -35 16 -26 14 5 15 9 4 30 l-13 24 -7 -28z"/>
<path d="M80 181 c-13 -26 -13 -31 5 -31 9 0 15 9 15 25 0 30 -6 32 -20 6z"/>
<path d="M553 132 c-42 -7 -69 -72 -41 -100 14 -14 77 -16 97 -3 11 7 11 16
-4 55 -20 52 -21 53 -52 48z"/>
<path d="M34 84 c-20 -54 -13 -64 48 -64 27 0 40 5 48 19 19 37 -18 91 -64 91
-8 0 -22 -20 -32 -46z"/>
<path d="M157 40 c-4 -17 0 -20 24 -20 35 0 36 3 5 23 -22 15 -24 15 -29 -3z"/>
<path d="M445 40 c-3 -5 3 -10 14 -10 12 0 21 5 21 10 0 6 -6 10 -14 10 -8 0
-18 -4 -21 -10z"/>
</g>
</svg>
